HIERARCHY
ROOT Hips
{
	OFFSET 0.000000 0.000000 0.000000
	CHANNELS 6 Xposition Yposition Zposition Zrotation Yrotation Xrotation 
	JOINT LHipJoint
	{
		OFFSET 0.000000 0.000000 0.000000
		CHANNELS 3 Zrotation Yrotation Xrotation
		JOINT LeftUpLeg
		{
			OFFSET 1.363060 -1.794630 0.839290
			CHANNELS 3 Zrotation Yrotation Xrotation
			JOINT LeftLeg
			{
				OFFSET 2.448110 -6.726130 0.000000
				CHANNELS 3 Zrotation Yrotation Xrotation
				JOINT LeftFoot
				{
					OFFSET 2.562200 -7.039590 0.000000
					CHANNELS 3 Zrotation Yrotation Xrotation
					JOINT LeftToeBase
					{
						OFFSET 0.157640 -0.433110 2.322550
						CHANNELS 3 Zrotation Yrotation Xrotation
						End Site
						{
							OFFSET 0.000000 0.000000 0.000000
						}
					}
				}
			}
		}
	}
	JOINT RHipJoint
	{
		OFFSET 0.000000 0.000000 0.000000
		CHANNELS 3 Zrotation Yrotation Xrotation
		JOINT RightUpLeg
		{
			OFFSET -1.305520 -1.794630 0.839290
			CHANNELS 3 Zrotation Yrotation Xrotation
			JOINT RightLeg
			{
				OFFSET -2.542530 -6.985550 0.000000
				CHANNELS 3 Zrotation Yrotation Xrotation
				JOINT RightFoot
				{
					OFFSET -2.568260 -7.056230 0.000000
					CHANNELS 3 Zrotation Yrotation Xrotation
					JOINT RightToeBase
					{
						OFFSET -0.164730 -0.452590 2.363150
						CHANNELS 3 Zrotation Yrotation Xrotation
						End Site
						{
							OFFSET 0.000000 0.000000 0.000000
						}
					}
				}
			}
		}
	}
	JOINT LowerBack
	{
		OFFSET 0.000000 0.000000 0.000000
		CHANNELS 3 Zrotation Yrotation Xrotation
		JOINT Spine
		{
			OFFSET 0.028270 2.035590 -0.193380
			CHANNELS 3 Zrotation Yrotation Xrotation
			JOINT Spine1
			{
				OFFSET 0.056720 2.048850 -0.042750
				CHANNELS 3 Zrotation Yrotation Xrotation
				JOINT Neck
				{
					OFFSET 0.000000 0.000000 0.000000
					CHANNELS 3 Zrotation Yrotation Xrotation
					JOINT Neck1
					{
						OFFSET -0.054170 1.746240 0.172020
						CHANNELS 3 Zrotation Yrotation Xrotation
						JOINT Head
						{
							OFFSET 0.104070 1.761360 -0.123970
							CHANNELS 3 Zrotation Yrotation Xrotation
							End Site
							{
								OFFSET 0.000000 0.000000 0.000000
							}
						}
					}
				}
				JOINT LeftShoulder
				{
					OFFSET 0.000000 0.000000 0.000000
					CHANNELS 3 Zrotation Yrotation Xrotation
					JOINT LeftArm
					{
						OFFSET 3.362410 1.200890 -0.311210
						CHANNELS 3 Zrotation Yrotation Xrotation
						JOINT LeftForeArm
						{
							OFFSET 4.983000 -0.000000 -0.000000
							CHANNELS 3 Zrotation Yrotation Xrotation
							JOINT LeftHand
							{
								OFFSET 3.483560 -0.000000 -0.000000
								CHANNELS 3 Zrotation Yrotation Xrotation
								JOINT LeftFingerBase
								{
									OFFSET 0.000000 0.000000 0.000000
									CHANNELS 3 Zrotation Yrotation Xrotation
									JOINT LeftHandIndex1
									{
										OFFSET 0.715260 -0.000000 -0.000000
										CHANNELS 3 Zrotation Yrotation Xrotation
										End Site
										{
											OFFSET 0.000000 0.000000 0.000000
										}
									}
								}
								JOINT LThumb
								{
									OFFSET 0.000000 0.000000 0.000000
									CHANNELS 3 Zrotation Yrotation Xrotation
									End Site
									{
										OFFSET 0.000000 0.000000 0.000000
									}
								}
							}
						}
					}
				}
				JOINT RightShoulder
				{
					OFFSET 0.000000 0.000000 0.000000
					CHANNELS 3 Zrotation Yrotation Xrotation
					JOINT RightArm
					{
						OFFSET -3.136600 1.374050 -0.404650
						CHANNELS 3 Zrotation Yrotation Xrotation
						JOINT RightForeArm
						{
							OFFSET -5.241900 -0.000000 -0.000000
							CHANNELS 3 Zrotation Yrotation Xrotation
							JOINT RightHand
							{
								OFFSET -3.444170 -0.000000 -0.000000
								CHANNELS 3 Zrotation Yrotation Xrotation
								JOINT RightFingerBase
								{
									OFFSET 0.000000 0.000000 0.000000
									CHANNELS 3 Zrotation Yrotation Xrotation
									JOINT RightHandIndex1
									{
										OFFSET -0.622530 -0.000000 -0.000000
										CHANNELS 3 Zrotation Yrotation Xrotation
										End Site
										{
											OFFSET 0.000000 0.000000 0.000000
										}
									}
								}
								JOINT RThumb
								{
									OFFSET 0.000000 0.000000 0.000000
									CHANNELS 3 Zrotation Yrotation Xrotation
									End Site
									{
										OFFSET 0.000000 0.000000 0.000000
									}
								}
							}
						}
					}
				}
			}
		}
	}
}
MOTION
Frames: 6
Frame Time: 0.008333
-13.752105 17.818400 -0.411077 87.536007 89.800993 100.013964 0.772297 2.341750 -0.293487 -16.171265 -10.095918 -24.240100 2.376504 9.700977 30.273521 -0.954818 6.825140 -9.148046 0.178700 2.722900 7.508200 -4.564229 -4.786107 -0.172169 29.085556 11.397552 -8.811249 -0.766855 -4.734370 17.726001 0.312113 -7.542865 -16.168404 -0.016500 -0.830300 2.281900 3.249928 -0.169177 -1.565787 1.481870 -0.291335 -2.759574 -3.542524 -0.382205 4.561470 2.666249 -3.706710 -11.904973 2.351759 -4.738010 18.489820 -1.495400 -1.554800 6.988100 -6.240306 -13.552599 1.469823 -81.687413 -4.009587 27.662533 18.881875 -27.908801 -8.089641 -2.910654 -0.967166 -15.340889 19.276268 44.203782 15.735500 -7.125000 0.000000 0.000000 -27.170400 74.110000 -19.034700 3.346189 14.068308 2.799861 81.963835 -10.314832 21.383680 -28.040408 39.771261 -9.839594 0.170201 -3.157358 9.962959 -27.807816 -2.474583 -0.552900 7.125000 0.000000 0.000000 -1.591100 -28.823700 -0.627100 
-13.695696 17.809628 -0.393022 90.282091 89.783965 102.388786 0.830986 2.393716 -0.281059 -16.118105 -10.638956 -24.566210 2.755815 10.251002 32.104802 -0.930766 6.683408 -8.771785 0.345600 3.777500 10.451500 -4.540725 -4.752524 -0.202035 29.190563 11.126195 -8.166122 -0.753810 -4.654559 17.606906 0.302908 -7.569272 -16.327540 -0.017200 -0.846700 2.327000 3.121575 -0.187038 -1.274407 1.457464 -0.292788 -2.814275 -3.555857 -0.380908 4.282741 2.785715 -3.740859 -11.588182 2.265735 -4.767108 18.536211 -1.545500 -1.557900 6.944900 -6.234242 -13.551172 1.450340 -81.626280 -3.579329 27.863904 18.898188 -27.932143 -8.053644 -2.918505 -0.948275 -15.117790 19.038427 43.829703 15.462800 -7.125000 0.000000 0.000000 -26.685400 73.729100 -18.470500 3.338778 14.108595 2.801631 82.145534 -10.393950 21.349320 -28.341017 40.010006 -9.982710 0.199361 -3.171439 9.792617 -27.768751 -2.722005 -0.424900 7.125000 0.000000 0.000000 -1.584100 -29.090300 -0.614300 
-13.636228 17.797999 -0.373437 88.112909 89.948799 99.858858 0.853663 2.325469 -0.324715 -15.768917 -11.102089 -24.956128 3.182062 10.821419 34.087880 -0.914995 6.591603 -8.471479 0.592200 4.926900 13.700300 -4.575263 -4.826224 -0.178260 29.592697 11.057441 -7.595908 -0.763317 -4.654189 17.675210 0.276065 -7.507276 -16.503540 -0.024300 -1.006400 2.766500 3.067279 -0.237839 -1.101072 1.516550 -0.335688 -2.801426 -3.386721 -0.415531 4.232947 2.678738 -3.712339 -11.493350 2.334270 -4.712440 18.640332 -1.499700 -1.525200 6.968800 -6.224875 -13.556828 1.442273 -81.706708 -3.413518 27.746533 18.894724 -27.935439 -8.042173 -2.918908 -0.936508 -15.042079 18.919253 43.719048 15.343700 -7.125000 0.000000 0.000000 -26.609900 73.596100 -18.342100 3.365132 14.095191 2.813229 82.007669 -10.311032 21.638343 -28.715480 40.278924 -10.163340 0.238406 -3.177632 9.484404 -27.807605 -3.014933 -0.270400 7.125000 0.000000 0.000000 -1.639500 -29.414100 -0.623200 
-13.586756 17.790655 -0.365991 83.495084 89.860935 95.108875 0.849773 2.202710 -0.402482 -15.716776 -11.652468 -25.665353 3.669792 11.404496 36.225621 -0.893223 6.445193 -7.976233 0.891900 6.019600 16.841200 -4.631579 -4.936883 -0.124019 29.617475 10.929889 -7.573928 -0.817857 -4.774439 18.010662 0.183151 -7.073673 -16.650436 -0.045500 -1.377100 3.787100 2.875467 -0.299793 -1.074040 1.535181 -0.382474 -2.794953 -3.256292 -0.465338 4.250735 2.519240 -3.685312 -11.487596 2.389673 -4.665157 18.610416 -1.450400 -1.512100 6.963100 -6.223444 -13.568960 1.439550 -81.810020 -3.438602 27.439579 18.837626 -27.876044 -8.022508 -2.920379 -0.921722 -14.904604 18.886322 43.686983 15.307900 -7.125000 0.000000 0.000000 -26.577500 73.553200 -18.295000 3.387535 14.046407 2.820966 81.748181 -10.001839 22.226378 -29.157149 40.602069 -10.380738 0.261779 -3.183758 8.918289 -28.066005 -2.977162 -0.305200 7.125000 0.000000 0.000000 -1.836700 -29.346300 -0.701200 
-13.538304 17.778822 -0.353445 79.729845 89.794401 91.251685 0.852283 2.094293 -0.472433 -15.592796 -12.145501 -26.544825 4.192132 12.000038 38.444618 -0.838450 6.155447 -7.476321 1.255100 7.102300 20.018700 -4.693894 -5.020723 -0.077388 29.709170 10.955213 -7.494751 -0.855030 -4.863391 18.269295 0.121203 -6.842581 -16.856710 -0.071400 -1.723800 4.743000 2.660029 -0.324689 -1.013290 1.536506 -0.379322 -2.796007 -3.165983 -0.486183 4.233447 2.466821 -3.712731 -11.531901 2.416565 -4.707524 18.552633 -1.437500 -1.538400 6.954600 -6.228701 -13.575360 1.441066 -81.766942 -3.393868 27.361782 18.864897 -27.894380 -8.025326 -2.922333 -0.916679 -14.843487 18.822556 43.569936 15.230800 -7.125000 0.000000 0.000000 -26.422100 73.437200 -18.119800 3.396450 14.009014 2.820814 81.649915 -9.669311 22.652048 -29.598420 40.939132 -10.616951 0.304266 -3.197009 8.435021 -28.372936 -3.314395 -0.136500 7.125000 0.000000 0.000000 -2.101200 -29.697100 -0.784700 
-13.484344 17.762706 -0.339266 76.812728 89.813731 88.235469 0.860605 2.006905 -0.530723 -15.369641 -12.655286 -27.444436 4.705795 12.552725 40.556113 -0.799667 5.922553 -6.869090 2.240200 9.349500 26.894700 -4.759100 -5.081617 -0.037354 29.927961 11.190092 -7.171757 -0.851455 -4.856238 18.278432 0.098496 -6.848549 -17.100858 -0.124600 -2.275900 6.268900 2.499035 -0.340847 -0.922996 1.545025 -0.370753 -2.811307 -3.081727 -0.498158 4.174361 2.434490 -3.752788 -11.649138 2.448197 -4.767427 18.590492 -1.428100 -1.565100 6.995100 -6.237662 -13.579049 1.440706 -81.665960 -3.279117 27.434911 18.969766 -28.003147 -8.080265 -2.916487 -0.932078 -14.941951 18.886479 43.701523 15.313600 -7.125000 0.000000 0.000000 -26.629200 73.572600 -18.342700 3.413389 13.990775 2.826322 81.602828 -9.558826 23.296883 -30.379571 41.549491 -11.041429 0.366464 -3.218062 7.732105 -28.963775 -3.809889 0.115200 7.125000 0.000000 0.000000 -2.603000 -30.205900 -0.940800 
